<?xml version="1.0" encoding="iso-8859-1"?>
<!-- Generator: Adobe Illustrator 16.0.0, SVG Export Plug-In . SVG Version: 6.00 Build 0)  -->
<!DOCTYPE svg PUBLIC "-//W3C//DTD SVG 1.1//EN" "http://www.w3.org/Graphics/SVG/1.1/DTD/svg11.dtd">
<svg version="1.1" id="Capa_1" xmlns="http://www.w3.org/2000/svg" xmlns:xlink="http://www.w3.org/1999/xlink" x="0px" y="0px"
	 width="29.252px" height="29.253px" viewBox="0 0 29.252 29.253" style="enable-background:new 0 0 29.252 29.253;"
	 xml:space="preserve">
<g>
	<g>
		<path d="M9.794,7.486c2.065,0,3.744-1.676,3.744-3.743C13.538,1.676,11.86,0,9.794,0C7.731,0,6.052,1.676,6.052,3.743
			C6.052,5.81,7.731,7.486,9.794,7.486z"/>
		<polygon points="13.46,23.895 13.46,21.96 6.074,21.96 3.449,11.462 1.573,11.932 4.564,23.895 6.076,23.895 4.136,28.17 
			5.309,28.703 7.492,23.895 10.694,23.895 12.792,28.695 13.974,28.178 12.101,23.895 		"/>
		<path d="M16.102,16.375l6.193-0.504l5.385-6.929l-0.037,0.002l-1.401-2.521l-1.793,2.781l-2.961,0.24l-2.313,2.976l-2.785,1.159
			l-4.179-4.93H7.953L7.321,21.377h1.546h0.606h0.886h2.672h0.166h1.472h1.716v7.876h3.369V18.757h-0.27h-3.1h-2.106v0.001H12.68
			l0.021-6.341l3.634,3.407v-0.01l0.299-0.125L16.102,16.375z M21.823,10.065l4.45-0.363l-4.312,5.548l-4.451,0.363l0.33-0.426
			l3.252-1.353l-0.767-1.844L21.823,10.065z"/>
	</g>
</g>
<g>
</g>
<g>
</g>
<g>
</g>
<g>
</g>
<g>
</g>
<g>
</g>
<g>
</g>
<g>
</g>
<g>
</g>
<g>
</g>
<g>
</g>
<g>
</g>
<g>
</g>
<g>
</g>
<g>
</g>
</svg>
